<svg xmlns="http://www.w3.org/2000/svg" width="865" height="847" fill="none" viewBox="0 0 865 847">
  <ellipse cx="167" cy="822.5" fill="#C4C4C4" fill-opacity=".1" rx="167" ry="12.5"/>
  <path fill="#B1B1B1" d="M144.424 701.169a199.997 199.997 0 0129.095-62.58l59.03-84.711-119.162 263.124 31.037-115.833z"/>
  <path fill="#B1B1B1" d="M175.212 757.803a200.004 200.004 0 0060.957-161.435l-3.62-42.49-119.162 263.124 61.825-59.199z"/>
  <path fill="#8C8C8C" d="M152.537 697.936a199.999 199.999 0 0128.978-62.411l40.699-58.534-91.454 202.22 21.777-81.275z"/>
  <path fill="#8C8C8C" d="M162.358 748.868a200 200 0 0060.769-161.033l-.913-10.844-91.454 202.22 31.598-30.343z"/>
  <path fill="#530202" d="M361.819 27.554a199.998 199.998 0 00-80.083 135.691l-51.517 399.326L376.452 16.823l-14.633 10.731zM383.509 31.948a199.996 199.996 0 012.863 162.705L230.219 562.571 376.452 16.823l7.057 15.125z"/>
  <g>
    <path fill="#530202" d="M172.151 682.694a199.975 199.975 0 0129.125-62.623l8.534-12.24-43.079 95.091 5.42-20.228zM177.954 692.183a104.436 104.436 0 0031.856-84.352l-43.079 95.091 11.223-10.739z"/>
  </g>
  <path fill="#C4C4C4" d="M303.281 128.179c7.887-35.214 24.257-57.687 64.545-80.538-34.874 25.855-49.458 35.825-64.106 90.491-11.905 44.433-25.984 145.914-30.479 196.818 8.617-97.595 6.304-100.803 30.04-206.771z"/>
  <g>
    <path fill="#D1D1D1" fill-opacity=".5" d="M216.854 760.923a200.007 200.007 0 0164.823-23.678l101.64-18.159L113 820.883l103.854-59.96zM198.578 822.739a199.998 199.998 0 00157.254-71.048l27.485-32.605L113 820.883l85.578 1.856z"/>
    <path fill="#D1D1D1" fill-opacity=".5" d="M224.876 764.374a199.969 199.969 0 0164.622-23.641l70.169-12.611-207.66 78.323 72.869-42.071z"/>
    <path fill="#D1D1D1" fill-opacity=".5" d="M195.806 807.333a200 200 0 00156.838-70.898l7.023-8.313-207.66 78.323 43.799.888zM846.892 438.327a199.997 199.997 0 00-152.575 39.32L375.523 723.586l489.304-282.5-17.935-2.759zM859.123 456.771a200 200 0 01-113.026 117.074L375.523 723.586l489.304-282.5-5.704 15.685z"/>
    <path fill="#D1D1D1" fill-opacity=".5" d="M249.523 767.464a200.024 200.024 0 0164.875-23.686l14.69-2.62-97.701 36.777 18.136-10.471zM246.917 778.278a104.436 104.436 0 0082.171-37.12l-97.701 36.777 15.53.343zM734.347 468.086c30.477-19.322 57.944-23.638 102.589-11.309-42.941-6.377-60.304-9.639-109.316 18.658-39.837 23-121.55 84.803-160.724 117.619 75.104-62.916 75.737-66.82 167.451-124.968z"/>
  </g>
</svg>
